<?xml version="1.0" encoding="utf-8"?>
<!-- Generator: Adobe Illustrator 19.0.0, SVG Export Plug-In . SVG Version: 6.00 Build 0)  -->
<svg version="1.1" id="Layer_1" xmlns="http://www.w3.org/2000/svg" xmlns:xlink="http://www.w3.org/1999/xlink" x="0px" y="0px"
	 viewBox="0 0 1000 1000" style="enable-background:new 0 0 1000 1000;" xml:space="preserve">
<style type="text/css">
	.st0{fill:#FF6969;}
	.st1{fill:#FFCCCC;}
	.st2{fill:url(#XMLID_12_);}
	.st3{fill:url(#XMLID_16_);}
</style>
<g id="XMLID_2_">
	<path id="XMLID_8_" class="st0" d="M0.3,499.7c0-94.6,26.3-183,71.9-258.4c78-128.9,212.6-219.7,369.4-238
		c19.2-2.2,38.8-3.4,58.7-3.4c17.8,0,35.4,0.9,52.8,2.8c4.4,0.5,8.7,1,13,1.5c2.2,0.3,4.3,0.6,6.5,0.9
		c113.8,16.5,215.2,71.8,290.7,151.5c0,0,0.1,0.5,0.1,0.5h0c0.1,0,0.2-0.2,0.2-0.1c6.9,6.6,13.4,13.3,19.7,20.6
		c2.4,3.3,4.8,6.6,7.2,10c0.1,0.1,0.1,0.1,0.2,0.2c10.1,14.3,19.9,29,29.2,43.9c14.3,23,27.6,46.7,39.9,71
		c26,60.5,40.4,127.1,40.4,197.1c0,276-223.7,499.8-499.7,499.8C355.5,999.5,225,938,134,839.6v0c0-0.4-0.4-0.8-0.8-1.2l0.3,1.2
		C50.8,750.4,0.3,631,0.3,499.7z"/>
	<path id="XMLID_6_" class="st1" d="M1000,499.7c0,276-223.7,499.8-499.7,499.8C355.5,999.5,225,938,134,839.6v0
		c0-0.4-0.4-0.8-0.8-1.2l0.3,1.2C50.8,750.4,0.2,631,0.2,499.7c0-94.6,26.3-183,72-258.4c78-128.9,212.6-219.7,369.4-238
		c19.2-2.2,38.8-3.4,58.7-3.4c17.8,0,35.4,0.9,52.8,2.8c4.4,0.5,8.7,1,13,1.5c2.2,0.3,4.3,0.6,6.5,0.9
		c113.8,16.5,215.2,71.8,290.7,151.5c0,0,0.1,0.5,0.1,0.5h0c0.1,0,0.2-0.2,0.2-0.1c6.9,6.6,13.4,13.3,19.7,20.6
		c8.4,9.9,16.2,20.2,23.2,31.1c0,0,0,0,0,0c20.9,29.1,38.8,60.6,53.1,94C985.6,363.1,1000,429.7,1000,499.7z"/>
	<linearGradient id="XMLID_12_" gradientUnits="userSpaceOnUse" x1="0.6557" y1="499.6928" x2="1000" y2="499.6928">
		<stop  offset="0" style="stop-color:#FFE79B"/>
		<stop  offset="0.9078" style="stop-color:#FFD244"/>
		<stop  offset="1" style="stop-color:#FFD03B"/>
	</linearGradient>
	<path id="XMLID_5_" class="st2" d="M1000,499.7c0,276-223.7,499.8-499.7,499.8C355.5,999.5,225,938,134,839.6v0
		c0-0.4-0.4-0.8-0.8-1.2c-82.4-89-132.6-208-132.6-338.7c0-94.4,26-182.8,71.5-258.1c0.1-0.1,0.2-0.2,0.3-0.3
		c78-128.9,212.5-219.7,369.1-238c19.2-2.2,38.8-3.4,58.7-3.4c17.8,0,35.4,0.9,52.8,2.8c4.4,0.5,8.7,1,13,1.5
		c2.2,0.3,4.3,0.6,6.5,0.9c113.9,16.5,215.3,71.4,290.7,151.1c0,0,0,0,0.1,0.1c0.1,0.1,0.2,0.2,0.2,0.3c9.4,9.9,18.3,20.2,26.8,30.8
		c0.1,0.1,0.1,0.1,0.2,0.2c5.5,6.8,10.7,13.8,15.8,20.9c0,0,0,0,0,0.1c20.9,29.1,38.8,60.6,53.1,94C985.6,363,1000,429.7,1000,499.7
		z"/>
	<linearGradient id="XMLID_16_" gradientUnits="userSpaceOnUse" x1="1113.9952" y1="76.8193" x2="321.0592" y2="582.4069">
		<stop  offset="0" style="stop-color:#8C61FF"/>
		<stop  offset="0.3418" style="stop-color:#8A60FD"/>
		<stop  offset="0.5148" style="stop-color:#845DF5"/>
		<stop  offset="0.65" style="stop-color:#7A57E8"/>
		<stop  offset="0.7655" style="stop-color:#6B4ED5"/>
		<stop  offset="0.8685" style="stop-color:#5744BC"/>
		<stop  offset="0.9612" style="stop-color:#40379F"/>
		<stop  offset="1" style="stop-color:#343090"/>
	</linearGradient>
	<path id="XMLID_3_" class="st3" d="M951.1,361.2c0,156.4-126.8,283.1-283.1,283.1c-156.4,0-283.1-126.8-283.1-283.1
		c0-156.4,126.8-283.1,283.1-283.1c75.7,0,144.4,29.7,195.2,78.1c0,0,0.1,0,0.1,0.1c7,6.6,13.6,13.7,19.9,21
		c8.4,9.9,16.2,20.3,23.2,31.2c0,0,0,0,0,0.1c4.8,7.4,9.2,15.1,13.2,23C939.8,270.4,951.1,314.5,951.1,361.2z"/>
</g>
</svg>
