<?xml version="1.0" encoding="utf-8"?>
<!-- Generator: Adobe Illustrator 19.0.0, SVG Export Plug-In . SVG Version: 6.00 Build 0)  -->
<svg version="1.1" id="Layer_1" xmlns="http://www.w3.org/2000/svg" xmlns:xlink="http://www.w3.org/1999/xlink" x="0px" y="0px"
	 viewBox="0 0 1000 1000" style="enable-background:new 0 0 1000 1000;" xml:space="preserve">
<style type="text/css">
	.st0{fill:#FF6969;}
	.st1{fill:#40128B;}
	.st2{fill:#7353F9;}
	.st3{fill:#6528F7;}
	.st4{fill:#FFCCCC;}
	.st5{fill:#FFE79B;}
</style>
<g id="XMLID_1_">
	<path id="XMLID_21_" class="st0" d="M419.3,383.7c0-52,14.4-100.6,39.6-142.1c42.9-70.9,116.9-120.8,203.1-130.9
		c10.6-1.2,21.3-1.9,32.3-1.9c9.8,0,19.5,0.5,29,1.5c2.4,0.3,4.8,0.5,7.1,0.8c1.2,0.1,2.4,0.3,3.5,0.5
		c62.6,9.1,118.3,39.3,159.8,83.2c0,0,0.1,0.1,0.1,0.1h0c0,0,0.1,0,0.1,0.1c3.8,3.6,7.4,7.4,10.8,11.4c1.3,1.8,2.7,3.7,4,5.5
		c0,0,0.1,0.1,0.1,0.1c5.6,7.9,10.9,15.9,16,24.2c7.9,12.6,15.2,25.7,21.9,39c14.3,33.2,22.2,69.9,22.2,108.4
		c0,151.8-122.9,274.8-274.7,274.8c-79.6,0-151.3-33.8-201.3-87.9v0c0-0.2-0.3-0.5-0.5-0.7l0.1,0.7
		C447.1,521.6,419.3,455.9,419.3,383.7z"/>
	<path id="XMLID_22_" class="st1" d="M901.4,798.1C810.3,920.6,664.4,1000,500,1000C223.9,1000,0,776.1,0,500
		C0,246.1,189.3,36.3,434.5,4.3C275,77.4,164.3,238.4,164.3,425.2c0,255.6,207.2,462.9,462.9,462.9
		C729.8,888.1,824.7,854.7,901.4,798.1z"/>
	<path id="XMLID_13_" class="st2" d="M904.8,206.4c-3.4-4-7-7.7-10.8-11.3c0-0.1-0.1-0.1-0.1-0.1h0c0,0,0-0.1-0.1-0.1
		c-41.5-43.8-97.2-74-159.8-83.1c-1.2-0.2-2.4-0.4-3.5-0.5c-2.4-0.3-4.8-0.6-7.1-0.9c-9.5-1-19.2-1.5-29-1.5
		c-10.9,0-21.7,0.6-32.3,1.9c-86.2,10.1-160.2,60-203.1,130.9c-25.1,41.5-39.6,90.1-39.6,142.1c0,72.2,27.8,137.9,73.4,186.9
		c-21.5-22.2-153.7-167.7-132-369.9C371.9,95.3,406.5,41.2,434.5,4.3C455.9,1.5,477.8,0,500,0C666.4,0,813.9,81.3,904.8,206.4z"/>
	<path id="XMLID_20_" class="st3" d="M1000,500c0,111.7-36.6,214.9-98.6,298.1c-76.8,56.6-171.6,90-274.3,90
		c-255.6,0-462.9-207.2-462.9-462.9c0-186.9,110.7-347.9,270.2-421c-27.9,36.9-62.6,91.1-73.9,196.4
		c-21.7,202.2,110.5,347.7,132,369.9l-0.2-0.7c0.2,0.2,0.5,0.5,0.5,0.7v0c50,54.1,121.7,87.9,201.3,87.9
		c151.8,0,274.6-123.1,274.6-274.8c0-38.5-7.9-75.1-22.2-108.4C980.8,342.9,1000,419.2,1000,500z"/>
	<path id="XMLID_23_" class="st4" d="M969,383.7c0,151.8-122.9,274.8-274.7,274.8c-79.6,0-151.3-33.8-201.3-87.9v0
		c0-0.2-0.3-0.5-0.5-0.7l0.1,0.7c-45.5-49-73.3-114.7-73.3-186.9c0-52,14.5-100.6,39.6-142.1c42.9-70.9,116.9-120.8,203.1-130.9
		c10.6-1.2,21.3-1.9,32.3-1.9c9.8,0,19.5,0.5,29,1.5c2.4,0.3,4.8,0.5,7.2,0.8c1.2,0.1,2.4,0.3,3.5,0.5
		c62.6,9.1,118.3,39.3,159.8,83.2c0,0,0.1,0.1,0.1,0.1h0c0,0,0.1,0,0.1,0.1c3.8,3.6,7.4,7.4,10.8,11.4c4.6,5.4,8.9,11.1,12.8,17.2
		c0,0,0,0,0,0c11.5,16,21.3,33.3,29.2,51.7C961.1,308.6,969,345.2,969,383.7z"/>
	<path id="XMLID_18_" class="st5" d="M969,383.7c0,151.8-122.9,274.8-274.7,274.8c-79.6,0-151.3-33.8-201.3-87.9v0
		c0-0.2-0.3-0.5-0.5-0.7c-45.3-48.9-72.9-114.4-72.9-186.2c0-51.9,14.3-100.5,39.3-141.9c0-0.1,0.1-0.1,0.1-0.2
		c42.9-70.9,116.8-120.8,203-130.9c10.6-1.2,21.3-1.9,32.3-1.9c9.8,0,19.5,0.5,29,1.5c2.4,0.3,4.8,0.5,7.2,0.8
		c1.2,0.1,2.4,0.3,3.5,0.5c62.6,9.1,118.4,39.2,159.9,83.1c0,0,0,0,0,0.1c0,0.1,0.1,0.1,0.1,0.1c5.1,5.4,10.1,11.1,14.8,17
		c0,0,0.1,0.1,0.1,0.1c3,3.7,5.9,7.6,8.7,11.5c0,0,0,0,0,0c11.5,16,21.3,33.3,29.2,51.7C961.1,308.6,969,345.2,969,383.7z"/>
	<path id="XMLID_12_" class="st3" d="M942.1,307.5c0,86-69.7,155.7-155.7,155.7c-86,0-155.7-69.7-155.7-155.7
		c0-86,69.7-155.7,155.7-155.7c41.6,0,79.4,16.3,107.3,42.9c0,0,0.1,0,0.1,0.1c3.8,3.7,7.5,7.5,11,11.6c4.6,5.4,8.9,11.2,12.8,17.2
		c0,0,0,0,0,0c2.6,4.1,5.1,8.3,7.3,12.6C935.9,257.6,942.1,281.9,942.1,307.5z"/>
</g>
</svg>
